<svg id="Layer_2" data-name="Layer 2" xmlns="http://www.w3.org/2000/svg" xmlns:xlink="http://www.w3.org/1999/xlink" viewBox="0 0 567.93 182.35"><defs><style>.cls-1{fill:url(#linear-gradient);}.cls-2{fill:url(#linear-gradient-2);}.cls-3{fill:url(#linear-gradient-3);}.cls-4{fill:url(#linear-gradient-4);}.cls-5{fill:url(#linear-gradient-5);}.cls-6{fill:#77bed2;}.cls-7{opacity:0.3;}.cls-8{fill:#fff;}.cls-10,.cls-9{fill:#353535;}.cls-10{fill-rule:evenodd;}</style><linearGradient id="linear-gradient" x1="67.53" y1="25.5" x2="78.53" y2="168.5" gradientUnits="userSpaceOnUse"><stop offset="0" stop-color="#77bed2"/><stop offset="1" stop-color="#3e7685"/></linearGradient><linearGradient id="linear-gradient-2" x1="196.45" y1="15.58" x2="207.45" y2="158.58" xlink:href="#linear-gradient"/><linearGradient id="linear-gradient-3" x1="307.36" y1="7.05" x2="318.36" y2="150.05" xlink:href="#linear-gradient"/><linearGradient id="linear-gradient-4" x1="417.65" y1="-1.43" x2="428.65" y2="141.57" xlink:href="#linear-gradient"/><linearGradient id="linear-gradient-5" x1="531.35" y1="-10.18" x2="542.35" y2="132.82" xlink:href="#linear-gradient"/></defs><title>PULSE_logo2</title><path class="cls-1" d="M19.06,12.44H72.65a97.72,97.72,0,0,1,21.16,2.23,47.4,47.4,0,0,1,17.65,7.66,38.76,38.76,0,0,1,12,14.25q4.47,8.83,4.47,21.8,0,12.76-4.57,21.9a42.4,42.4,0,0,1-12.23,15A52.71,52.71,0,0,1,93.5,104a75.11,75.11,0,0,1-20.84,2.87h-17v43.81H19.06V12.44Z" transform="translate(-19.06 -9.89)"/><path class="cls-2" d="M142.2,12.44h36.58V88.15q0,18.5,5,26.05t15.84,7.55q10.85,0,16.06-7.55t5.21-26.05V12.44h35.3V83.9q0,35.52-13.82,52.42t-42.75,16.91q-29.14,0-43.28-16.91T142.2,83.9V12.44Z" transform="translate(-19.06 -9.89)"/><path class="cls-3" d="M272.78,12.44h36.58V120.05h52.32v30.63h-88.9V12.44Z" transform="translate(-19.06 -9.89)"/><path class="cls-4" d="M393.58,108.36A70,70,0,0,0,409.63,118a41.07,41.07,0,0,0,16.27,3.72q8.29,0,12-2.55a8.26,8.26,0,0,0,3.72-7.23,6.88,6.88,0,0,0-1.28-4.25,13.09,13.09,0,0,0-3.72-3.19,41.56,41.56,0,0,0-5.85-2.87q-3.4-1.38-7.87-3.08L405.7,91.34a51,51,0,0,1-10.63-5.64,41.39,41.39,0,0,1-8.93-8.29,38.13,38.13,0,0,1-6.06-11,39.73,39.73,0,0,1-2.23-13.61,37.26,37.26,0,0,1,3.83-16.7A42.79,42.79,0,0,1,392.3,22.54a51.28,51.28,0,0,1,16.27-9.25,60.89,60.89,0,0,1,20.74-3.4,70.05,70.05,0,0,1,24.14,4.47,59.36,59.36,0,0,1,21.8,14L457,51.36a66.55,66.55,0,0,0-13.5-7.44,38.32,38.32,0,0,0-14.14-2.55q-6.81,0-10.64,2.34a7.7,7.7,0,0,0-3.83,7q0,4.89,5.42,7.55t15,6.27l16.8,6.59q13,5.1,20,14.25t7,23.6a41,41,0,0,1-14.14,30.95A52.33,52.33,0,0,1,448,149.61a67.35,67.35,0,0,1-23,3.62,83.22,83.22,0,0,1-27.12-4.79,72.16,72.16,0,0,1-25.2-15Z" transform="translate(-19.06 -9.89)"/><path class="cls-5" d="M493.74,12.44h89.32V43.07H530.32V64.76h45.09V95.38H530.32v24.67h54.87v30.63H493.74V12.44Z" transform="translate(-19.06 -9.89)"/><circle class="cls-6" cx="54.81" cy="49.61" r="19.13"/><g class="cls-7"><path class="cls-8" d="M92,58.06c0,0.15,0,.3,0,0.45l-12.53-.3c0-.05,0-0.1,0-0.15,0-2.56-.39-4.7-2.71-5.42l3.33-10.76A16.94,16.94,0,0,1,92,58.06Z" transform="translate(-19.06 -9.89)"/></g><path class="cls-9" d="M19.57,167.38h5.68a12.9,12.9,0,0,1,2.8.28,5.87,5.87,0,0,1,2.16.92,4.27,4.27,0,0,1,1.38,1.68,6.86,6.86,0,0,1,0,5.11,4.74,4.74,0,0,1-1.4,1.78A6.17,6.17,0,0,1,28,178.21a10.27,10.27,0,0,1-2.78.35H21.91v7.34H19.57V167.38Zm5.4,9.27a5.81,5.81,0,0,0,3.6-.92,3.45,3.45,0,0,0,1.17-2.9A3.07,3.07,0,0,0,28.55,170a6.63,6.63,0,0,0-3.59-.78H21.91v7.37H25Z" transform="translate(-19.06 -9.89)"/><path class="cls-9" d="M34,182.35a3.81,3.81,0,0,1,2-3.46,16.71,16.71,0,0,1,6.43-1.68,6.32,6.32,0,0,0-.13-1.27,3,3,0,0,0-.45-1.1,2.46,2.46,0,0,0-.86-0.78,2.84,2.84,0,0,0-1.38-.3,5.54,5.54,0,0,0-2.25.45,11.17,11.17,0,0,0-1.85,1l-0.93-1.61a14.91,14.91,0,0,1,2.34-1.2,7.83,7.83,0,0,1,3.05-.58,4.22,4.22,0,0,1,3.64,1.54,6.8,6.8,0,0,1,1.13,4.11v8.42H42.85l-0.2-1.64H42.59a11.36,11.36,0,0,1-2.13,1.4,5.28,5.28,0,0,1-2.42.58,4.2,4.2,0,0,1-2.9-1A3.66,3.66,0,0,1,34,182.35Zm2.29-.17a2,2,0,0,0,.69,1.69,2.81,2.81,0,0,0,1.71.51,4,4,0,0,0,1.88-.47,9.21,9.21,0,0,0,1.88-1.37v-3.81a24.21,24.21,0,0,0-2.91.54,7.62,7.62,0,0,0-1.91.73,2.73,2.73,0,0,0-1,1A2.4,2.4,0,0,0,36.29,182.18Z" transform="translate(-19.06 -9.89)"/><path class="cls-9" d="M49.82,174.07h-2v-1.75l2.15-.14,0.28-3.84h1.95v3.84h3.7v1.89h-3.7v7.63a3.49,3.49,0,0,0,.47,2,1.84,1.84,0,0,0,1.65.69,3,3,0,0,0,.79-0.11,5.91,5.91,0,0,0,.76-0.25l0.45,1.75a11.8,11.8,0,0,1-1.23.35,5.75,5.75,0,0,1-1.31.16,4.48,4.48,0,0,1-1.85-.34,3.17,3.17,0,0,1-1.21-.93,3.62,3.62,0,0,1-.66-1.44,8.21,8.21,0,0,1-.2-1.86v-7.6Z" transform="translate(-19.06 -9.89)"/><path class="cls-9" d="M60.45,169.36a1.63,1.63,0,0,1-1.14-.42,1.48,1.48,0,0,1,0-2.16,1.8,1.8,0,0,1,2.29,0,1.49,1.49,0,0,1,0,2.16A1.64,1.64,0,0,1,60.45,169.36Zm-1.19,2.83h2.32v13.73H59.26V172.18Z" transform="translate(-19.06 -9.89)"/><path class="cls-9" d="M65.47,179.07a8.31,8.31,0,0,1,.52-3,7.1,7.1,0,0,1,1.38-2.27,6,6,0,0,1,2-1.43,5.54,5.54,0,0,1,2.29-.49,5.74,5.74,0,0,1,2.33.45,4.54,4.54,0,0,1,1.72,1.3,6,6,0,0,1,1.06,2,9,9,0,0,1,.37,2.66,7.92,7.92,0,0,1-.08,1.27H67.76a5.45,5.45,0,0,0,1.37,3.53,4.21,4.21,0,0,0,3.21,1.3,5.39,5.39,0,0,0,1.82-.3,8,8,0,0,0,1.6-.78l0.82,1.53a11.69,11.69,0,0,1-2,1,7,7,0,0,1-2.51.42,6.73,6.73,0,0,1-2.58-.49,6.11,6.11,0,0,1-2.09-1.41A6.52,6.52,0,0,1,66,182.1,8.41,8.41,0,0,1,65.47,179.07Zm9.6-1a5.09,5.09,0,0,0-.89-3.23,3,3,0,0,0-2.5-1.12,3.38,3.38,0,0,0-1.4.3,3.87,3.87,0,0,0-1.2.85,4.51,4.51,0,0,0-.89,1.36,6.28,6.28,0,0,0-.47,1.85h7.34Z" transform="translate(-19.06 -9.89)"/><path class="cls-9" d="M80.79,172.18h1.92l0.2,2H83a11.19,11.19,0,0,1,2.08-1.65,4.76,4.76,0,0,1,2.53-.66,3.69,3.69,0,0,1,3.18,1.36,6.71,6.71,0,0,1,1,4v8.7H89.46v-8.39a4.91,4.91,0,0,0-.62-2.81,2.27,2.27,0,0,0-2-.86,3.38,3.38,0,0,0-1.89.54A12.33,12.33,0,0,0,83.1,176v9.94H80.79V172.18Z" transform="translate(-19.06 -9.89)"/><path class="cls-9" d="M96.92,174.07h-2v-1.75l2.15-.14,0.28-3.84h1.95v3.84H103v1.89h-3.7v7.63a3.49,3.49,0,0,0,.47,2,1.84,1.84,0,0,0,1.65.69,3,3,0,0,0,.79-0.11,5.91,5.91,0,0,0,.76-0.25l0.45,1.75a11.8,11.8,0,0,1-1.23.35,5.75,5.75,0,0,1-1.31.16,4.48,4.48,0,0,1-1.85-.34,3.17,3.17,0,0,1-1.21-.93,3.62,3.62,0,0,1-.66-1.44,8.21,8.21,0,0,1-.2-1.86v-7.6Z" transform="translate(-19.06 -9.89)"/><path class="cls-9" d="M112.48,167.38h2.35v10.93a9.84,9.84,0,0,0,.34,2.8,4.92,4.92,0,0,0,.92,1.81,3.32,3.32,0,0,0,1.37,1,4.8,4.8,0,0,0,1.69.3,4.88,4.88,0,0,0,1.72-.3,3.43,3.43,0,0,0,1.38-1,4.8,4.8,0,0,0,.93-1.81,9.84,9.84,0,0,0,.34-2.8V167.38h2.26v10.88a12,12,0,0,1-.51,3.76,6.6,6.6,0,0,1-1.4,2.47,5.09,5.09,0,0,1-2.1,1.36,8.19,8.19,0,0,1-2.63.41,8.32,8.32,0,0,1-2.64-.41,5.07,5.07,0,0,1-2.12-1.36A6.6,6.6,0,0,1,113,182a12,12,0,0,1-.51-3.76V167.38Z" transform="translate(-19.06 -9.89)"/><path class="cls-9" d="M130.84,172.18h1.92l0.2,2H133a11.16,11.16,0,0,1,2.08-1.65,4.76,4.76,0,0,1,2.53-.66,3.69,3.69,0,0,1,3.18,1.36,6.7,6.7,0,0,1,1,4v8.7h-2.32v-8.39a4.91,4.91,0,0,0-.62-2.81,2.27,2.27,0,0,0-2-.86,3.38,3.38,0,0,0-1.89.54,12.33,12.33,0,0,0-1.87,1.58v9.94h-2.32V172.18Z" transform="translate(-19.06 -9.89)"/><path class="cls-9" d="M147.76,169.36a1.63,1.63,0,0,1-1.14-.42,1.48,1.48,0,0,1,0-2.16,1.8,1.8,0,0,1,2.29,0,1.49,1.49,0,0,1,0,2.16A1.64,1.64,0,0,1,147.76,169.36Zm-1.19,2.83h2.32v13.73h-2.32V172.18Z" transform="translate(-19.06 -9.89)"/><path class="cls-9" d="M160,167.69a3.8,3.8,0,0,0-1.55-.34q-1.92,0-1.92,2.66v2.17h2.91v1.89h-2.91v11.84h-2.32V174.07h-1.86v-1.75l1.86-.14V170a5.19,5.19,0,0,1,1-3.33,3.66,3.66,0,0,1,3-1.21,5.76,5.76,0,0,1,1.23.13,6.37,6.37,0,0,1,1.06.33Z" transform="translate(-19.06 -9.89)"/><path class="cls-9" d="M163.53,169.36a1.63,1.63,0,0,1-1.14-.42,1.48,1.48,0,0,1,0-2.16,1.8,1.8,0,0,1,2.29,0,1.49,1.49,0,0,1,0,2.16A1.64,1.64,0,0,1,163.53,169.36Zm-1.19,2.83h2.32v13.73h-2.32V172.18Z" transform="translate(-19.06 -9.89)"/><path class="cls-9" d="M168.56,179.07a8.31,8.31,0,0,1,.52-3,7.1,7.1,0,0,1,1.38-2.27,6,6,0,0,1,2-1.43,5.54,5.54,0,0,1,2.29-.49,5.74,5.74,0,0,1,2.33.45,4.54,4.54,0,0,1,1.72,1.3,6,6,0,0,1,1.06,2,9,9,0,0,1,.37,2.66,7.92,7.92,0,0,1-.08,1.27h-9.27a5.45,5.45,0,0,0,1.37,3.53,4.21,4.21,0,0,0,3.21,1.3,5.39,5.39,0,0,0,1.82-.3,8,8,0,0,0,1.6-.78l0.82,1.53a11.69,11.69,0,0,1-2,1,7,7,0,0,1-2.51.42,6.73,6.73,0,0,1-2.58-.49,6.11,6.11,0,0,1-2.09-1.41,6.52,6.52,0,0,1-1.4-2.25A8.41,8.41,0,0,1,168.56,179.07Zm9.6-1a5.09,5.09,0,0,0-.89-3.23,3,3,0,0,0-2.5-1.12,3.38,3.38,0,0,0-1.4.3,3.87,3.87,0,0,0-1.2.85,4.51,4.51,0,0,0-.89,1.36,6.28,6.28,0,0,0-.47,1.85h7.34Z" transform="translate(-19.06 -9.89)"/><path class="cls-9" d="M182.88,179.07a8.64,8.64,0,0,1,.5-3,7.12,7.12,0,0,1,1.31-2.27,5.8,5.8,0,0,1,1.89-1.44,5.2,5.2,0,0,1,2.26-.51,4.68,4.68,0,0,1,2.06.42,9.24,9.24,0,0,1,1.78,1.16l-0.11-2.34V165.8h2.34v20.11H193l-0.2-1.61h-0.08a8.66,8.66,0,0,1-1.88,1.37,4.68,4.68,0,0,1-2.27.58,5.09,5.09,0,0,1-4.14-1.86A8.13,8.13,0,0,1,182.88,179.07Zm2.4,0a6.56,6.56,0,0,0,1,3.87,3.23,3.23,0,0,0,2.8,1.38,3.7,3.7,0,0,0,1.81-.47,6.49,6.49,0,0,0,1.7-1.43v-7.18a5.84,5.84,0,0,0-1.68-1.12,4.37,4.37,0,0,0-1.65-.33,3.24,3.24,0,0,0-1.54.38,3.89,3.89,0,0,0-1.26,1.07,5.37,5.37,0,0,0-.85,1.65A7,7,0,0,0,185.28,179Z" transform="translate(-19.06 -9.89)"/><path class="cls-9" d="M206,167.38h2.34V183.9h8.11v2H206V167.38Z" transform="translate(-19.06 -9.89)"/><path class="cls-9" d="M218.47,179.07A8.39,8.39,0,0,1,219,176a7,7,0,0,1,1.4-2.27,5.87,5.87,0,0,1,2-1.41,6.31,6.31,0,0,1,4.83,0,5.87,5.87,0,0,1,2,1.41,7,7,0,0,1,1.4,2.27,8.39,8.39,0,0,1,.52,3.06,8.31,8.31,0,0,1-.52,3,6.8,6.8,0,0,1-1.4,2.26,5.93,5.93,0,0,1-2,1.4,6.31,6.31,0,0,1-4.83,0,5.93,5.93,0,0,1-2-1.4,6.8,6.8,0,0,1-1.4-2.26A8.31,8.31,0,0,1,218.47,179.07Zm2.4,0a7.59,7.59,0,0,0,.28,2.15,5.07,5.07,0,0,0,.81,1.65,3.69,3.69,0,0,0,1.26,1.07,3.59,3.59,0,0,0,3.22,0,3.71,3.71,0,0,0,1.26-1.07,5.09,5.09,0,0,0,.8-1.65,7.59,7.59,0,0,0,.28-2.15,7.75,7.75,0,0,0-.28-2.16,5.27,5.27,0,0,0-.8-1.68,3.66,3.66,0,0,0-1.26-1.09,3.59,3.59,0,0,0-3.22,0,3.64,3.64,0,0,0-1.26,1.09,5.25,5.25,0,0,0-.81,1.68A7.75,7.75,0,0,0,220.88,179.07Z" transform="translate(-19.06 -9.89)"/><path class="cls-9" d="M234.07,179.07a8.39,8.39,0,0,1,.52-3.06,7,7,0,0,1,1.4-2.27,5.86,5.86,0,0,1,2-1.41,6.31,6.31,0,0,1,4.83,0,5.87,5.87,0,0,1,2,1.41,7,7,0,0,1,1.4,2.27,8.41,8.41,0,0,1,.52,3.06,8.33,8.33,0,0,1-.52,3,6.82,6.82,0,0,1-1.4,2.26,5.93,5.93,0,0,1-2,1.4,6.31,6.31,0,0,1-4.83,0,5.93,5.93,0,0,1-2-1.4,6.78,6.78,0,0,1-1.4-2.26A8.31,8.31,0,0,1,234.07,179.07Zm2.4,0a7.59,7.59,0,0,0,.28,2.15,5.07,5.07,0,0,0,.8,1.65,3.71,3.71,0,0,0,1.26,1.07,3.59,3.59,0,0,0,3.22,0,3.71,3.71,0,0,0,1.26-1.07,5.09,5.09,0,0,0,.81-1.65,7.63,7.63,0,0,0,.28-2.15,7.78,7.78,0,0,0-.28-2.16,5.27,5.27,0,0,0-.81-1.68,3.66,3.66,0,0,0-1.26-1.09,3.59,3.59,0,0,0-3.22,0,3.66,3.66,0,0,0-1.26,1.09,5.25,5.25,0,0,0-.8,1.68A7.75,7.75,0,0,0,236.47,179.07Z" transform="translate(-19.06 -9.89)"/><path class="cls-9" d="M250.68,165.8H253v13.62h0.08l5.85-7.23h2.57l-4.6,5.51,5.23,8.22h-2.54l-4-6.61-2.57,3v3.62h-2.29V165.8Z" transform="translate(-19.06 -9.89)"/><path class="cls-9" d="M264.35,172.18h2.34v8.39a5,5,0,0,0,.61,2.81,2.24,2.24,0,0,0,2,.86,3.31,3.31,0,0,0,1.89-.55,8.87,8.87,0,0,0,1.81-1.77v-9.75h2.32v13.73h-1.92l-0.2-2.15h-0.08a9.16,9.16,0,0,1-2,1.81,4.54,4.54,0,0,1-2.5.68,3.73,3.73,0,0,1-3.21-1.36,6.71,6.71,0,0,1-1-4v-8.7Z" transform="translate(-19.06 -9.89)"/><path class="cls-9" d="M282.52,187.07v4.63H280.2V172.18h1.92l0.2,1.58h0.08a10.45,10.45,0,0,1,2-1.36,5.1,5.1,0,0,1,2.33-.56,5.31,5.31,0,0,1,2.34.49,4.57,4.57,0,0,1,1.7,1.41,6.65,6.65,0,0,1,1,2.2,10.94,10.94,0,0,1,.35,2.9,9.41,9.41,0,0,1-.48,3.12,7.24,7.24,0,0,1-1.3,2.33,5.5,5.5,0,0,1-1.89,1.46,5.35,5.35,0,0,1-2.26.49,4.63,4.63,0,0,1-1.91-.42,9.57,9.57,0,0,1-1.91-1.16Zm0-4.21a6.14,6.14,0,0,0,1.81,1.12,4.54,4.54,0,0,0,1.55.33,3.3,3.3,0,0,0,1.57-.38,3.75,3.75,0,0,0,1.24-1.07,5.27,5.27,0,0,0,.82-1.71,8.18,8.18,0,0,0,.3-2.29,10,10,0,0,0-.2-2.06,4.61,4.61,0,0,0-.64-1.6,3.05,3.05,0,0,0-1.13-1,3.49,3.49,0,0,0-1.65-.37,3.69,3.69,0,0,0-1.77.48,10.31,10.31,0,0,0-1.91,1.38v7.2Z" transform="translate(-19.06 -9.89)"/><path class="cls-9" d="M302.43,181.87a7.72,7.72,0,0,0,2.33,1.68,6.44,6.44,0,0,0,2.78.63,4.39,4.39,0,0,0,2.85-.83,2.69,2.69,0,0,0,1-2.19,2.73,2.73,0,0,0-.24-1.2,2.62,2.62,0,0,0-.65-0.85,4.72,4.72,0,0,0-1-.64l-1.21-.59-2.66-1.16a12.48,12.48,0,0,1-1.33-.68,5.44,5.44,0,0,1-1.21-1,4.59,4.59,0,0,1-.87-1.34,4.71,4.71,0,0,1,.1-3.74,4.78,4.78,0,0,1,1.21-1.57,5.64,5.64,0,0,1,1.84-1,7.09,7.09,0,0,1,2.33-.37,7.42,7.42,0,0,1,3.08.64,7.75,7.75,0,0,1,2.4,1.65L312,170.85a6.61,6.61,0,0,0-1.88-1.29,5.6,5.6,0,0,0-2.33-.47,4,4,0,0,0-2.5.72,2.36,2.36,0,0,0-.95,2,2.27,2.27,0,0,0,.27,1.14,2.8,2.8,0,0,0,.72.82,5.77,5.77,0,0,0,1,.62q0.54,0.27,1.1.49L310,176a11.28,11.28,0,0,1,1.5.78,5.37,5.37,0,0,1,1.21,1,4.42,4.42,0,0,1,.8,1.36,5,5,0,0,1,.3,1.79,4.9,4.9,0,0,1-1.7,3.74,6,6,0,0,1-2,1.13,7.87,7.87,0,0,1-2.63.41,8.89,8.89,0,0,1-6.5-2.74Z" transform="translate(-19.06 -9.89)"/><path class="cls-9" d="M317.09,189.82a2.27,2.27,0,0,0,.54.07,2.48,2.48,0,0,0,1.94-.83,5.9,5.9,0,0,0,1.17-2.1l0.31-1-5.51-13.76h2.4l2.8,7.6,0.66,1.91q0.35,1,.66,2h0.11q0.31-.93.59-1.95t0.57-1.92l2.46-7.6h2.26L322.88,187a16.06,16.06,0,0,1-.82,1.89,6.25,6.25,0,0,1-1.07,1.51,4.77,4.77,0,0,1-1.41,1,4.33,4.33,0,0,1-1.84.37,5,5,0,0,1-.88-0.07,3.57,3.57,0,0,1-.73-0.21l0.45-1.84Z" transform="translate(-19.06 -9.89)"/><path class="cls-9" d="M330.63,182.8a9.22,9.22,0,0,0,1.85,1.19,5,5,0,0,0,2.19.45,2.92,2.92,0,0,0,2-.62,2,2,0,0,0,.68-1.53,1.56,1.56,0,0,0-.28-0.93,2.82,2.82,0,0,0-.72-0.69,5.29,5.29,0,0,0-1-.52l-1.13-.45q-0.74-.25-1.47-0.58a5.88,5.88,0,0,1-1.31-.79,4,4,0,0,1-.95-1.09,2.89,2.89,0,0,1-.37-1.5,3.7,3.7,0,0,1,.33-1.54,3.54,3.54,0,0,1,.93-1.24,4.41,4.41,0,0,1,1.48-.82,6.62,6.62,0,0,1,4.36.16,7.39,7.39,0,0,1,1.88,1.1l-1.1,1.47a7.44,7.44,0,0,0-1.47-.88,4.07,4.07,0,0,0-1.67-.34,2.65,2.65,0,0,0-1.91.59,1.88,1.88,0,0,0-.61,1.38,1.39,1.39,0,0,0,.25.83,2.4,2.4,0,0,0,.68.62,5.49,5.49,0,0,0,1,.48l1.14,0.44,1.48,0.59a5.69,5.69,0,0,1,1.34.78,3.81,3.81,0,0,1,1,1.14,3.29,3.29,0,0,1,.38,1.64,3.87,3.87,0,0,1-.33,1.58,3.76,3.76,0,0,1-1,1.3,4.58,4.58,0,0,1-1.58.89,6.64,6.64,0,0,1-2.16.33,7.4,7.4,0,0,1-2.8-.54,8.71,8.71,0,0,1-2.32-1.36Z" transform="translate(-19.06 -9.89)"/><path class="cls-9" d="M343.51,174.07h-2v-1.75l2.15-.14,0.28-3.84h1.95v3.84h3.7v1.89h-3.7v7.63a3.5,3.5,0,0,0,.47,2,1.84,1.84,0,0,0,1.65.69,3,3,0,0,0,.79-0.11,5.93,5.93,0,0,0,.76-0.25l0.45,1.75a11.78,11.78,0,0,1-1.23.35,5.75,5.75,0,0,1-1.31.16,4.49,4.49,0,0,1-1.85-.34,3.18,3.18,0,0,1-1.21-.93,3.63,3.63,0,0,1-.66-1.44,8.21,8.21,0,0,1-.2-1.86v-7.6Z" transform="translate(-19.06 -9.89)"/><path class="cls-9" d="M351.64,179.07a8.31,8.31,0,0,1,.52-3,7.1,7.1,0,0,1,1.38-2.27,6,6,0,0,1,2-1.43,5.54,5.54,0,0,1,2.29-.49,5.74,5.74,0,0,1,2.33.45,4.54,4.54,0,0,1,1.72,1.3,6,6,0,0,1,1.06,2,9,9,0,0,1,.37,2.66,7.92,7.92,0,0,1-.08,1.27h-9.27a5.45,5.45,0,0,0,1.37,3.53,4.21,4.21,0,0,0,3.21,1.3,5.39,5.39,0,0,0,1.82-.3,8,8,0,0,0,1.6-.78l0.82,1.53a11.69,11.69,0,0,1-2,1,7,7,0,0,1-2.51.42,6.73,6.73,0,0,1-2.58-.49,6.11,6.11,0,0,1-2.09-1.41,6.52,6.52,0,0,1-1.4-2.25A8.41,8.41,0,0,1,351.64,179.07Zm9.6-1a5.09,5.09,0,0,0-.89-3.23,3,3,0,0,0-2.5-1.12,3.38,3.38,0,0,0-1.4.3,3.87,3.87,0,0,0-1.2.85,4.51,4.51,0,0,0-.89,1.36,6.28,6.28,0,0,0-.47,1.85h7.34Z" transform="translate(-19.06 -9.89)"/><path class="cls-9" d="M367,172.18h1.92l0.2,2h0.08a9.48,9.48,0,0,1,2-1.65,4.25,4.25,0,0,1,2.3-.66,3.94,3.94,0,0,1,2.47.69,4,4,0,0,1,1.31,1.93,11.51,11.51,0,0,1,2.16-1.91,4.18,4.18,0,0,1,2.36-.72,3.71,3.71,0,0,1,3.15,1.36,6.57,6.57,0,0,1,1,4v8.7h-2.32v-8.39a4.91,4.91,0,0,0-.62-2.81,2.21,2.21,0,0,0-1.92-.86q-1.55,0-3.45,2.12v9.94h-2.32v-8.39a4.91,4.91,0,0,0-.62-2.81,2.24,2.24,0,0,0-1.95-.86q-1.55,0-3.45,2.12v9.94H367V172.18Z" transform="translate(-19.06 -9.89)"/><path class="cls-9" d="M402.83,167.69a3.8,3.8,0,0,0-1.55-.34q-1.92,0-1.92,2.66v2.17h2.91v1.89h-2.91v11.84H397V174.07h-1.86v-1.75l1.86-.14V170a5.19,5.19,0,0,1,1-3.33,3.66,3.66,0,0,1,3-1.21,5.77,5.77,0,0,1,1.23.13,6.4,6.4,0,0,1,1.06.33Z" transform="translate(-19.06 -9.89)"/><path class="cls-9" d="M403.88,179.07a8.39,8.39,0,0,1,.52-3.06,7,7,0,0,1,1.4-2.27,5.87,5.87,0,0,1,2-1.41,6.31,6.31,0,0,1,4.83,0,5.87,5.87,0,0,1,2,1.41,7,7,0,0,1,1.4,2.27,8.39,8.39,0,0,1,.52,3.06,8.31,8.31,0,0,1-.52,3,6.8,6.8,0,0,1-1.4,2.26,5.93,5.93,0,0,1-2,1.4,6.31,6.31,0,0,1-4.83,0,5.93,5.93,0,0,1-2-1.4,6.8,6.8,0,0,1-1.4-2.26A8.31,8.31,0,0,1,403.88,179.07Zm2.4,0a7.59,7.59,0,0,0,.28,2.15,5.07,5.07,0,0,0,.81,1.65,3.69,3.69,0,0,0,1.26,1.07,3.59,3.59,0,0,0,3.22,0,3.71,3.71,0,0,0,1.26-1.07,5.09,5.09,0,0,0,.8-1.65,7.59,7.59,0,0,0,.28-2.15,7.75,7.75,0,0,0-.28-2.16,5.27,5.27,0,0,0-.8-1.68,3.66,3.66,0,0,0-1.26-1.09,3.59,3.59,0,0,0-3.22,0,3.64,3.64,0,0,0-1.26,1.09,5.25,5.25,0,0,0-.81,1.68A7.75,7.75,0,0,0,406.28,179.07Z" transform="translate(-19.06 -9.89)"/><path class="cls-9" d="M420.49,172.18h1.92l0.2,2.49h0.08a6.34,6.34,0,0,1,1.71-2.06,3.54,3.54,0,0,1,2.19-.76,3.66,3.66,0,0,1,1.47.28l-0.45,2A5.36,5.36,0,0,0,427,174a3.75,3.75,0,0,0-.71-0.06,3.08,3.08,0,0,0-1.82.71,5.62,5.62,0,0,0-1.65,2.46v8.81h-2.32V172.18Z" transform="translate(-19.06 -9.89)"/><path class="cls-9" d="M436.79,167.38h10.68v2h-8.33v5.82h7v2h-7v6.72h8.62v2h-11V167.38Z" transform="translate(-19.06 -9.89)"/><path class="cls-9" d="M451.73,172.18h1.92l0.2,2h0.08a9.48,9.48,0,0,1,2-1.65,4.26,4.26,0,0,1,2.3-.66,3.94,3.94,0,0,1,2.47.69,4,4,0,0,1,1.31,1.93,11.54,11.54,0,0,1,2.16-1.91,4.19,4.19,0,0,1,2.36-.72,3.71,3.71,0,0,1,3.15,1.36,6.57,6.57,0,0,1,1,4v8.7h-2.32v-8.39a4.91,4.91,0,0,0-.62-2.81,2.21,2.21,0,0,0-1.92-.86q-1.55,0-3.45,2.12v9.94h-2.32v-8.39a4.91,4.91,0,0,0-.62-2.81,2.24,2.24,0,0,0-1.95-.86q-1.55,0-3.45,2.12v9.94h-2.32V172.18Z" transform="translate(-19.06 -9.89)"/><path class="cls-9" d="M474.42,179.07a8.31,8.31,0,0,1,.52-3,7.09,7.09,0,0,1,1.38-2.27,6,6,0,0,1,2-1.43,5.54,5.54,0,0,1,2.29-.49,5.75,5.75,0,0,1,2.33.45,4.55,4.55,0,0,1,1.72,1.3,6,6,0,0,1,1.06,2,9,9,0,0,1,.37,2.66,7.92,7.92,0,0,1-.08,1.27H476.7a5.45,5.45,0,0,0,1.37,3.53,4.21,4.21,0,0,0,3.21,1.3,5.39,5.39,0,0,0,1.82-.3,8,8,0,0,0,1.6-.78l0.82,1.53a11.64,11.64,0,0,1-2,1,7,7,0,0,1-2.51.42,6.73,6.73,0,0,1-2.58-.49,6.12,6.12,0,0,1-2.09-1.41,6.55,6.55,0,0,1-1.4-2.25A8.41,8.41,0,0,1,474.42,179.07Zm9.6-1a5.09,5.09,0,0,0-.89-3.23,3,3,0,0,0-2.5-1.12,3.38,3.38,0,0,0-1.4.3,3.88,3.88,0,0,0-1.2.85,4.53,4.53,0,0,0-.89,1.36,6.28,6.28,0,0,0-.47,1.85H484Z" transform="translate(-19.06 -9.89)"/><path class="cls-9" d="M489.73,172.18h1.92l0.2,2.49h0.08a6.34,6.34,0,0,1,1.71-2.06,3.54,3.54,0,0,1,2.19-.76,3.66,3.66,0,0,1,1.47.28l-0.45,2a5.36,5.36,0,0,0-.62-0.17,3.75,3.75,0,0,0-.71-0.06,3.08,3.08,0,0,0-1.82.71A5.62,5.62,0,0,0,492,177.1v8.81h-2.32V172.18Z" transform="translate(-19.06 -9.89)"/><path class="cls-9" d="M498.49,188.54a2.92,2.92,0,0,1,.54-1.67,5.64,5.64,0,0,1,1.47-1.44v-0.11a2.69,2.69,0,0,1-.86-0.86,2.74,2.74,0,0,1,.13-2.9,4.32,4.32,0,0,1,1-1v-0.11a5.61,5.61,0,0,1-1.23-1.51,4.26,4.26,0,0,1-.55-2.19,4.87,4.87,0,0,1,.41-2,4.58,4.58,0,0,1,1.12-1.54,4.9,4.9,0,0,1,1.65-1,5.87,5.87,0,0,1,2-.34,5.44,5.44,0,0,1,1.06.1,6.51,6.51,0,0,1,.89.24h4.77V174h-2.83a4,4,0,0,1,1.13,2.83,4.86,4.86,0,0,1-.4,2,4.36,4.36,0,0,1-1.07,1.5,4.91,4.91,0,0,1-1.6.95,5.63,5.63,0,0,1-2,.34,4.51,4.51,0,0,1-1-.13,5.12,5.12,0,0,1-1-.35,3.35,3.35,0,0,0-.62.69,1.67,1.67,0,0,0-.25.95,1.34,1.34,0,0,0,.51,1.07,3.13,3.13,0,0,0,1.92.42h2.66a6.71,6.71,0,0,1,3.6.78,2.75,2.75,0,0,1,1.2,2.5,3.7,3.7,0,0,1-.48,1.82,4.66,4.66,0,0,1-1.38,1.51,7.23,7.23,0,0,1-2.19,1,10.14,10.14,0,0,1-2.9.38,10.35,10.35,0,0,1-2.32-.24,5.63,5.63,0,0,1-1.79-.72,3.58,3.58,0,0,1-1.16-1.16A3,3,0,0,1,498.49,188.54Zm2-.31a2,2,0,0,0,1.06,1.75,5.59,5.59,0,0,0,2.92.65,6.26,6.26,0,0,0,1.79-.24,5,5,0,0,0,1.37-.62,2.91,2.91,0,0,0,.88-0.89,2,2,0,0,0,.31-1,1.36,1.36,0,0,0-.71-1.33,4.6,4.6,0,0,0-2.06-.37h-2.37q-0.4,0-.86,0a4.43,4.43,0,0,1-.92-0.18,3.73,3.73,0,0,0-1.07,1.13A2.37,2.37,0,0,0,500.52,188.23Zm3.64-8.22a2.79,2.79,0,0,0,1.12-.23,2.88,2.88,0,0,0,.93-0.65,2.93,2.93,0,0,0,.63-1,3.89,3.89,0,0,0,.23-1.37,3.16,3.16,0,0,0-.85-2.36,3,3,0,0,0-4.12,0,3.16,3.16,0,0,0-.85,2.36,3.91,3.91,0,0,0,.23,1.37,2.92,2.92,0,0,0,.64,1,2.87,2.87,0,0,0,.93.65A2.78,2.78,0,0,0,504.16,180Z" transform="translate(-19.06 -9.89)"/><path class="cls-9" d="M512.64,179.07a8.31,8.31,0,0,1,.52-3,7.09,7.09,0,0,1,1.38-2.27,6,6,0,0,1,2-1.43,5.54,5.54,0,0,1,2.29-.49,5.75,5.75,0,0,1,2.33.45,4.55,4.55,0,0,1,1.72,1.3,6,6,0,0,1,1.06,2,9,9,0,0,1,.37,2.66,7.92,7.92,0,0,1-.08,1.27h-9.27a5.45,5.45,0,0,0,1.37,3.53,4.21,4.21,0,0,0,3.21,1.3,5.39,5.39,0,0,0,1.82-.3,8,8,0,0,0,1.6-.78l0.82,1.53a11.64,11.64,0,0,1-2,1,7,7,0,0,1-2.51.42,6.73,6.73,0,0,1-2.58-.49,6.12,6.12,0,0,1-2.09-1.41,6.55,6.55,0,0,1-1.4-2.25A8.41,8.41,0,0,1,512.64,179.07Zm9.6-1a5.09,5.09,0,0,0-.89-3.23,3,3,0,0,0-2.5-1.12,3.38,3.38,0,0,0-1.4.3,3.88,3.88,0,0,0-1.2.85,4.53,4.53,0,0,0-.89,1.36,6.28,6.28,0,0,0-.47,1.85h7.34Z" transform="translate(-19.06 -9.89)"/><path class="cls-9" d="M527.95,172.18h1.92l0.2,2h0.08a11.16,11.16,0,0,1,2.08-1.65,4.76,4.76,0,0,1,2.53-.66,3.69,3.69,0,0,1,3.18,1.36,6.71,6.71,0,0,1,1,4v8.7h-2.32v-8.39a4.91,4.91,0,0,0-.62-2.81,2.27,2.27,0,0,0-2-.86,3.38,3.38,0,0,0-1.89.54,12.33,12.33,0,0,0-1.86,1.58v9.94h-2.32V172.18Z" transform="translate(-19.06 -9.89)"/><path class="cls-9" d="M542.67,179.07a8.21,8.21,0,0,1,.54-3.06,6.88,6.88,0,0,1,1.44-2.27,6,6,0,0,1,2.1-1.41,6.74,6.74,0,0,1,2.53-.48,5.1,5.1,0,0,1,2.33.49,7.44,7.44,0,0,1,1.68,1.14l-1.16,1.5a6.55,6.55,0,0,0-1.29-.88,3.22,3.22,0,0,0-1.48-.34,3.85,3.85,0,0,0-3.08,1.47,5.4,5.4,0,0,0-.89,1.68,6.8,6.8,0,0,0-.32,2.16,6.93,6.93,0,0,0,.31,2.15,5.18,5.18,0,0,0,.86,1.65,3.81,3.81,0,0,0,1.34,1.07,4.11,4.11,0,0,0,3.52,0,6.5,6.5,0,0,0,1.43-1l1,1.53a7.55,7.55,0,0,1-2.08,1.3,6.11,6.11,0,0,1-2.39.48,6.71,6.71,0,0,1-2.54-.48,5.71,5.71,0,0,1-2-1.4,6.56,6.56,0,0,1-1.36-2.26A8.73,8.73,0,0,1,542.67,179.07Z" transform="translate(-19.06 -9.89)"/><path class="cls-9" d="M558,169.36a1.64,1.64,0,0,1-1.14-.42,1.49,1.49,0,0,1,0-2.16,1.81,1.81,0,0,1,2.29,0,1.49,1.49,0,0,1,0,2.16A1.64,1.64,0,0,1,558,169.36Zm-1.19,2.83h2.32v13.73h-2.32V172.18Z" transform="translate(-19.06 -9.89)"/><path class="cls-9" d="M563.06,179.07a8.31,8.31,0,0,1,.52-3,7.09,7.09,0,0,1,1.38-2.27,6,6,0,0,1,2-1.43,5.54,5.54,0,0,1,2.29-.49,5.75,5.75,0,0,1,2.33.45,4.55,4.55,0,0,1,1.72,1.3,6,6,0,0,1,1.06,2,9,9,0,0,1,.37,2.66,7.92,7.92,0,0,1-.08,1.27h-9.27a5.45,5.45,0,0,0,1.37,3.53,4.21,4.21,0,0,0,3.21,1.3,5.39,5.39,0,0,0,1.82-.3,8,8,0,0,0,1.6-.78l0.82,1.53a11.64,11.64,0,0,1-2,1,7,7,0,0,1-2.51.42,6.73,6.73,0,0,1-2.58-.49,6.12,6.12,0,0,1-2.09-1.41,6.55,6.55,0,0,1-1.4-2.25A8.41,8.41,0,0,1,563.06,179.07Zm9.6-1a5.09,5.09,0,0,0-.89-3.23,3,3,0,0,0-2.5-1.12,3.38,3.38,0,0,0-1.4.3,3.88,3.88,0,0,0-1.2.85,4.53,4.53,0,0,0-.89,1.36,6.28,6.28,0,0,0-.47,1.85h7.34Z" transform="translate(-19.06 -9.89)"/><path class="cls-9" d="M578,182.8a9.22,9.22,0,0,0,1.85,1.19,5,5,0,0,0,2.19.45,2.92,2.92,0,0,0,2-.62,2,2,0,0,0,.68-1.53,1.57,1.57,0,0,0-.28-0.93,2.8,2.8,0,0,0-.72-0.69,5.26,5.26,0,0,0-1-.52l-1.13-.45q-0.74-.25-1.47-0.58a5.87,5.87,0,0,1-1.31-.79,4,4,0,0,1-.95-1.09,2.89,2.89,0,0,1-.37-1.5,3.7,3.7,0,0,1,.33-1.54,3.54,3.54,0,0,1,.93-1.24,4.39,4.39,0,0,1,1.48-.82,6.62,6.62,0,0,1,4.37.16,7.4,7.4,0,0,1,1.88,1.1l-1.1,1.47a7.41,7.41,0,0,0-1.47-.88,4.07,4.07,0,0,0-1.67-.34,2.64,2.64,0,0,0-1.91.59,1.88,1.88,0,0,0-.61,1.38,1.39,1.39,0,0,0,.25.83,2.4,2.4,0,0,0,.68.62,5.49,5.49,0,0,0,1,.48l1.14,0.44,1.48,0.59a5.71,5.71,0,0,1,1.34.78,3.82,3.82,0,0,1,1,1.14,3.3,3.3,0,0,1,.38,1.64,3.87,3.87,0,0,1-.33,1.58,3.75,3.75,0,0,1-1,1.3,4.58,4.58,0,0,1-1.58.89,6.64,6.64,0,0,1-2.16.33,7.4,7.4,0,0,1-2.8-.54,8.71,8.71,0,0,1-2.32-1.36Z" transform="translate(-19.06 -9.89)"/><path class="cls-10" d="M84.87,69.31a8,8,0,0,0-4.08-2.87,21,21,0,0,0-12.53,0,8,8,0,0,0-4.11,2.9,1.42,1.42,0,0,0-.15.89v1.71a2.6,2.6,0,0,0,.62,1.7h0l0.22,0.18a15,15,0,0,0,19.63-.2h0A2.57,2.57,0,0,0,85,71.94V70.21A1.44,1.44,0,0,0,84.87,69.31Z" transform="translate(-19.06 -9.89)"/><path class="cls-10" d="M74.54,64.69c2.91,0,5.4-3.06,5.4-6.81s-2.42-5.44-5.4-5.44-5.4,1.7-5.4,5.44S71.63,64.69,74.54,64.69Z" transform="translate(-19.06 -9.89)"/><path class="cls-8" d="M90.35,42.47A22.44,22.44,0,0,1,60.57,75.94l-20.9,24.44c-1.69,1.73-4.73,1.5-6.72-.5s-2.23-5-.54-6.76h0L56.88,72.25A22.44,22.44,0,0,1,90.35,42.47h0Zm3,15.87a18.89,18.89,0,1,0-5.53,13.37,18.85,18.85,0,0,0,5.53-13.37h0Z" transform="translate(-19.06 -9.89)"/><path class="cls-8" d="M74.5,34.23A24.24,24.24,0,1,0,98.74,58.48,24.24,24.24,0,0,0,74.5,34.23ZM74.5,76A17.48,17.48,0,1,1,92,58.48,17.48,17.48,0,0,1,74.5,76Z" transform="translate(-19.06 -9.89)"/></svg>